<svg xmlns="http://www.w3.org/2000/svg" viewBox="0 0 91.41 114.37" width="24" height="24">
  <g>
    <path d="m45.71,114.37c-.55,0-1.08-.25-1.44-.67L10.48,73.47C3.72,65.43,0,55.22,0,44.71,0,20.06,20.06,0,44.71,0h1.99c24.66,0,44.71,20.06,44.71,44.71,0,10.5-3.72,20.72-10.48,28.76h0l-33.79,40.23c-.36.42-.88.67-1.44.67Zm-.99-110.62C22.13,3.75,3.75,22.13,3.75,44.71c0,9.62,3.41,18.98,9.6,26.35l32.36,38.52,32.36-38.52c6.19-7.37,9.6-16.72,9.6-26.35,0-22.59-18.38-40.96-40.96-40.96h-1.99Zm34.79,68.51h.01-.01Z"/>
    <path d="m45.71,71.59c-14.82,0-26.88-12.06-26.88-26.88s12.06-26.88,26.88-26.88,26.88,12.06,26.88,26.88-12.06,26.88-26.88,26.88Zm0-50c-12.75,0-23.13,10.37-23.13,23.13s10.37,23.13,23.13,23.13,23.13-10.37,23.13-23.13-10.37-23.13-23.13-23.13Z"/>
  </g>
</svg>
