<svg xmlns="http://www.w3.org/2000/svg" viewBox="0 0 96.88 96.81" width="24" height="24">
  <path d="m73.47,96.81c-1.37,0-3.44-.22-6.34-.66-2.96-.45-6.46-1.53-10.69-3.28-4.13-1.71-8.86-4.3-14.06-7.7-5.2-3.4-10.81-8.13-16.67-14.05-4.64-4.57-8.55-9.02-11.62-13.23-3.06-4.19-5.56-8.13-7.44-11.72-1.88-3.59-3.31-6.91-4.26-9.86-.95-2.95-1.6-5.53-1.94-7.68C.08,26.42-.05,24.69.02,23.36c.06-1.09.1-1.72.1-1.88,0-.08,0-.18.02-.25.16-1.11.51-2.24,1.06-3.36.56-1.16,1.27-2.14,2.11-2.9L16.34,1.93c1.28-1.28,2.79-1.93,4.48-1.93,1.27,0,2.41.38,3.4,1.12.83.61,1.55,1.4,2.13,2.31.03.04.05.09.08.13l10.55,20.01c.79,1.41,1.03,3.01.67,4.71-.34,1.6-1.07,2.98-2.18,4.09l-4.71,4.71s-.03.08-.04.11c.26,1.14.77,2.46,1.54,3.94.75,1.5,1.92,3.35,3.5,5.53,1.58,2.18,3.86,4.74,6.79,7.59,2.89,2.96,5.47,5.26,7.68,6.88,2.21,1.61,4.07,2.8,5.52,3.54,1.72.88,2.61,1.17,3.06,1.26l.87.17s.03,0,.05-.02c0,0,.02,0,.02,0l5.49-5.59s.06-.06.1-.09c1.53-1.36,3.35-2.04,5.39-2.04,1.3,0,2.42.23,3.32.69.14.04.28.1.4.16l19.03,11.24c1.87,1.15,2.98,2.66,3.35,4.5,0,.04.02.08.02.12.27,2.08-.39,3.99-1.91,5.51l-13.12,13.02c-.68.76-1.66,1.47-2.82,2.03-1.12.54-2.25.9-3.36,1.05-.09.01-.18.02-.27.02-.02,0-.17.02-.4.04-.39.03-.87.06-1.47.06ZM3.86,21.67c-.01.3-.04.93-.1,1.9-.06,1.05.07,2.55.38,4.48.31,1.96.92,4.36,1.81,7.12.89,2.75,2.24,5.87,4.02,9.27,1.79,3.42,4.2,7.21,7.15,11.25,2.95,4.04,6.73,8.34,11.24,12.78,5.69,5.75,11.09,10.31,16.08,13.57,5,3.27,9.53,5.75,13.45,7.38,3.89,1.61,7.2,2.64,9.82,3.04,3.34.51,4.98.62,5.78.62.46,0,.83-.01,1.12-.04.24-.02.42-.04.55-.05.71-.11,1.45-.35,2.2-.71.73-.35,1.31-.77,1.74-1.24l13.18-13.09c.69-.69.95-1.4.85-2.3-.11-.5-.41-1.23-1.6-1.96l-18.74-11.07c-.13-.04-.26-.09-.36-.16-.25-.15-.74-.32-1.7-.32-1.09,0-2.03.35-2.85,1.06l-5.57,5.67c-.35.35-.8.61-1.38.81-.7.23-1.15.3-1.61.21l-1.23-.25c-1-.2-2.32-.72-4.03-1.6-1.65-.84-3.62-2.1-6.02-3.85-2.38-1.74-5.12-4.18-8.12-7.26-3.05-2.98-5.47-5.69-7.18-8.05-1.7-2.34-2.98-4.37-3.81-6.03-.99-1.9-1.64-3.67-1.94-5.22-.02-.12-.03-.23-.03-.35,0-.41.08-.85.25-1.34.19-.57.45-1.02.79-1.36l4.84-4.84c.6-.6.98-1.32,1.17-2.21.17-.81.08-1.49-.29-2.15L23.14,5.39c-.33-.5-.72-.93-1.17-1.26-.34-.26-.7-.37-1.15-.37-.68,0-1.26.26-1.83.83l-13.11,13.11c-.54.49-.96,1.08-1.31,1.8-.36.75-.6,1.47-.71,2.17Z"/>
</svg>
